<?xml version="1.0" standalone="no"?><!DOCTYPE svg PUBLIC "-//W3C//DTD SVG 1.1//EN" "http://www.w3.org/Graphics/SVG/1.1/DTD/svg11.dtd"><svg t="1647870479973" class="icon" viewBox="0 0 1024 1024" version="1.1" xmlns="http://www.w3.org/2000/svg" p-id="9679" xmlns:xlink="http://www.w3.org/1999/xlink" width="200" height="200"><defs><style type="text/css">@font-face { font-family: feedback-iconfont; src: url("//at.alicdn.com/t/font_1031158_u69w8yhxdu.woff2?t=1630033759944") format("woff2"), url("//at.alicdn.com/t/font_1031158_u69w8yhxdu.woff?t=1630033759944") format("woff"), url("//at.alicdn.com/t/font_1031158_u69w8yhxdu.ttf?t=1630033759944") format("truetype"); }
</style></defs><path d="M863.28 62H160.72c-51.5 0-93.23 41.73-93.23 93.23v549.49c0 51.49 41.73 93.24 93.23 93.24h702.56c51.49 0 93.24-41.75 93.24-93.24V155.23c0-51.5-41.75-93.23-93.24-93.23zM511.99 593.49c-99.3 0-179.66-80.36-179.66-179.66 0-99.31 80.36-179.67 179.66-179.67 5.56 0 11.11 0.32 16.34 0.99v162.34h162.35c0.65 5.23 0.98 10.78 0.98 16.34 0 99.3-80.36 179.66-179.67 179.66zM174.94 908c-8.77 19.12-0.39 41.74 18.73 50.52a37.931 37.931 0 0 0 15.87 3.49c14.43 0 28.24-8.24 34.65-22.22l43.71-95.21h-83.86L174.94 908zM825.3 844.58h-83.86l43.71 95.21c6.41 13.98 20.22 22.22 34.65 22.22 5.31 0 10.72-1.12 15.87-3.49 19.11-8.77 27.5-31.39 18.73-50.52l-29.1-63.42z" p-id="9680"></path></svg>